<svg width="123" height="151" viewBox="0 0 123 151" fill="none" xmlns="http://www.w3.org/2000/svg">
<path d="M110.556 18.8582H60.1371V24.3521H110.556V18.8582Z" fill="#BDDBF2"/>
<path d="M117.127 54.5618H53.5732V60.0557H117.127V54.5618Z" fill="#BDDBF2"/>
<path d="M74.3907 13.7771L49.2111 121.769H53.6223L78.8019 13.7771H74.3907Z" fill="#BDDBF2"/>
<path d="M96.3056 13.7769H91.8945L117.078 121.769H121.489L96.3056 13.7769Z" fill="#BDDBF2"/>
<path d="M122.636 90.2617H48.0609V95.7557H122.636V90.2617Z" fill="#BDDBF2"/>
<path d="M111.024 95.7627H115.404L116.565 100.685H112.136L111.024 95.7627Z" fill="#290920"/>
<path d="M102.705 60.0803H107.102L108.027 63.9381H103.584L102.705 60.0803Z" fill="#290920"/>
<path d="M94.3503 24.377H98.7685L99.6057 27.9702H95.2086L94.3503 24.377Z" fill="#290920"/>
<path d="M59.666 95.7627H55.2829L54.1256 100.685H58.5509L59.666 95.7627Z" fill="#290920"/>
<path d="M67.9816 60.0803H63.5845L62.6629 63.9381H67.1022L67.9816 60.0803Z" fill="#290920"/>
<path d="M76.336 24.377H71.9178L71.0806 27.9702H75.4777L76.336 24.377Z" fill="#290920"/>
<path d="M111.952 90.297H106.025L105.142 80.3882H112.835L111.952 90.297Z" fill="#42A3E8"/>
<path d="M102.328 67.4292C102.212 67.3798 102.096 67.5032 102.159 67.616C102.862 68.8573 103.548 70.1162 103.939 71.4879C104.132 72.1614 104.255 72.8702 104.618 73.4732C104.734 73.6671 104.885 73.847 105.057 73.9986C105.75 74.6051 106.834 74.2208 107.034 73.318C107.369 71.8229 106.658 70.2608 105.578 69.1817C104.621 68.219 103.531 67.9475 102.328 67.4292Z" fill="#209E9B"/>
<path d="M105.972 70.751C105.564 69.1536 105.627 67.4822 105.55 65.8354C105.49 64.4883 105.318 63.1025 104.759 61.893C104.66 61.6779 104.899 61.4699 105.096 61.5968C106.637 62.5842 108.118 63.6914 109.208 65.1513C110.197 66.4772 110.827 68.064 111.02 69.7072C111.122 70.5994 111.097 71.5197 110.788 72.3625C110.383 73.4698 109.303 74.8062 108.097 74.0798C106.971 73.4028 106.282 71.9711 105.972 70.751Z" fill="#40C7A1"/>
<path d="M116.026 70.504C116.036 70.4123 115.927 70.3559 115.864 70.4229C115.143 71.1599 114.4 71.8863 113.528 72.4294C113.099 72.6974 112.631 72.923 112.283 73.2968C112.17 73.4167 112.075 73.5578 112.005 73.7059C111.72 74.3089 112.202 74.9894 112.867 74.9506C113.971 74.8907 114.918 74.0832 115.452 73.117C115.927 72.2601 115.903 71.442 116.026 70.504Z" fill="#40C7A1"/>
<path d="M106.352 75.1728C105.444 74.0656 102.887 71.5196 98.5779 71.5513C98.2543 71.5548 98.0784 71.9322 98.2789 72.1825C99.3237 73.4908 102.159 76.4246 106.116 75.8005C106.412 75.7546 106.542 75.402 106.352 75.1728Z" fill="#40C7A1"/>
<path d="M117.619 75.9097C116.708 75.6064 114.348 75.0846 111.917 76.6502C111.734 76.7666 111.769 77.0452 111.973 77.1157C113.032 77.4789 115.691 78.1242 117.711 76.3505C117.862 76.22 117.809 75.9732 117.619 75.9097Z" fill="#209E9B"/>
<path d="M106.552 89.3272C107.344 89.1897 108.135 89.1579 108.927 89.1509C109.718 89.1544 110.51 89.1861 111.301 89.3272C110.51 89.4682 109.718 89.5 108.927 89.5035C108.135 89.4965 107.344 89.4647 106.552 89.3272Z" fill="#290920"/>
<path d="M106.785 64.7878C107.235 66.0361 107.608 67.3126 107.953 68.5962C108.294 69.8798 108.586 71.1774 108.843 72.4822C109.071 73.7904 109.297 75.1057 109.406 76.4316C109.515 77.7575 109.567 79.0939 109.423 80.4198C109.413 80.0883 109.406 79.7569 109.402 79.4254C109.395 79.0939 109.36 78.766 109.339 78.4345C109.325 78.103 109.286 77.7751 109.251 77.4472C109.216 77.1192 109.187 76.7913 109.135 76.4633C108.973 75.1516 108.751 73.8468 108.498 72.5492C108.269 71.2444 107.974 69.9538 107.689 68.6597C107.548 68.0109 107.397 67.3655 107.242 66.7238L106.785 64.7878Z" fill="#290920"/>
<path d="M117.162 75.9556C116.43 76.005 115.709 76.1002 114.991 76.2165C114.277 76.3399 113.57 76.4916 112.888 76.7173C112.205 76.9359 111.544 77.225 110.953 77.62C110.358 78.0149 109.845 78.5297 109.472 79.1645C109.592 78.8154 109.782 78.491 110 78.1877C110.225 77.888 110.499 77.627 110.795 77.3943C111.386 76.9288 112.079 76.6115 112.782 76.3787C113.493 76.1531 114.221 76.0085 114.956 75.9415C115.695 75.8745 116.433 75.871 117.162 75.9556Z" fill="#290920"/>
<path d="M103.914 68.843C104.913 70.6379 105.87 72.4574 106.827 74.2735L108.238 77.0099C108.705 77.9232 109.184 78.833 109.638 79.7533L109.314 79.8238C109.374 78.9211 109.613 78.0431 109.982 77.2285C110.359 76.4175 110.869 75.6805 111.435 74.9999C112.002 74.3193 112.638 73.7058 113.307 73.1345C113.975 72.5632 114.7 72.059 115.407 71.5477C115.087 71.8474 114.728 72.1048 114.397 72.3869C114.063 72.669 113.732 72.9547 113.416 73.2544C112.779 73.8539 112.163 74.4745 111.636 75.1621C111.108 75.8497 110.63 76.5761 110.267 77.359C109.923 78.1489 109.704 78.9846 109.659 79.8379L109.624 80.4621L109.335 79.9085C108.86 78.9987 108.41 78.0748 107.949 77.158L106.577 74.4004C105.673 72.5597 104.773 70.7119 103.914 68.843Z" fill="#290920"/>
<path d="M100.337 72.3694C101.343 72.6515 102.317 73.0429 103.267 73.4872C104.217 73.9315 105.128 74.4605 105.99 75.0705C106.841 75.6876 107.65 76.3893 108.287 77.2427C108.607 77.6659 108.881 78.1243 109.089 78.6144C109.286 79.1081 109.419 79.6229 109.441 80.1484C109.342 79.6335 109.173 79.1398 108.93 78.6849C108.698 78.2265 108.41 77.7998 108.072 77.412C107.407 76.6291 106.619 75.9591 105.782 75.3597C104.945 74.7567 104.055 74.2277 103.144 73.7305C102.69 73.4802 102.226 73.2474 101.754 73.0253C101.29 72.7925 100.815 72.581 100.337 72.3694Z" fill="#290920"/>
<path d="M91.7678 78.699C91.7678 78.699 83.6666 55.9369 89.7768 53.0066C95.887 50.0763 94.1598 78.9635 94.1598 78.9635L91.7678 78.699Z" fill="#158280"/>
<path d="M92.7423 78.9212C92.7423 78.9212 86.9873 67.69 85.7632 59.1917C85.436 56.9172 82.3545 56.4377 81.3625 58.5111C81.3485 58.5393 81.3344 58.5675 81.3238 58.5993C79.9977 61.5261 84.1556 76.1707 91.8593 79.1892L92.7423 78.9212Z" fill="#158280"/>
<path d="M93.2734 78.3007C93.2734 78.3007 94.5116 61.9706 100.003 62.1504C105.494 62.3302 95.6654 74.4853 95.4895 78.7451L93.2734 78.3007Z" fill="#158280"/>
<path d="M91.7677 78.6991C91.7677 78.6991 84.6831 65.5814 80.374 66.4629C76.0648 67.3445 80.9016 76.7773 90.0476 79.3338L91.7677 78.6991Z" fill="#158280"/>
<path d="M97.8955 78.7167C97.892 78.4875 97.702 78.3076 97.4769 78.3076H94.916H87.3319H84.771C84.5424 78.3076 84.3559 78.4875 84.3524 78.7167C84.3102 80.6702 84.3067 89.0063 87.3319 90.2652C87.3847 90.2864 87.441 90.2969 87.5008 90.2969H88.039H94.216H94.7542C94.8105 90.2969 94.8703 90.2864 94.9231 90.2652C97.9412 89.0063 97.9377 80.6702 97.8955 78.7167Z" fill="#FFB41B"/>
<path d="M84.8308 79.8946C85.8263 79.8205 86.8253 79.7888 87.8208 79.7606C88.8163 79.7288 89.8154 79.7253 90.8109 79.7183C91.8064 79.7218 92.8054 79.7253 93.8009 79.7606L95.2959 79.8099C95.7954 79.8382 96.2914 79.8558 96.7909 79.8981C96.2914 79.9369 95.7954 79.9545 95.2959 79.9863L93.8009 80.0356C92.8054 80.0674 91.8064 80.0709 90.8109 80.0779C89.8154 80.0744 88.8163 80.0674 87.8208 80.0356C86.8218 80.0004 85.8263 79.9651 84.8308 79.8946Z" fill="#290920"/>
<path d="M79.8743 67.9617C80.1839 68.4412 80.4899 68.9208 80.8136 69.3898C81.1266 69.8659 81.4467 70.3348 81.7809 70.7968C82.4422 71.7207 83.1141 72.634 83.8423 73.505C84.5599 74.3795 85.3162 75.2258 86.1499 75.991C86.2519 76.0862 86.3539 76.1885 86.4594 76.2837L86.7866 76.5517C87.0082 76.728 87.2157 76.9219 87.4549 77.07C87.6871 77.2287 87.9122 77.405 88.1585 77.5461C88.4082 77.6765 88.658 77.8141 88.9077 77.9551C87.8208 77.5919 86.8534 76.9254 85.974 76.1955C85.084 75.4656 84.3066 74.6122 83.5749 73.7306C82.8468 72.8456 82.1714 71.9181 81.5593 70.9484C80.9437 69.9857 80.3633 68.9984 79.8743 67.9617Z" fill="#290920"/>
<path d="M83.5118 58.0317C83.6877 58.9027 83.8636 59.7702 84.0641 60.6306C84.2541 61.4945 84.4581 62.3585 84.6762 63.2154C85.1159 64.9291 85.5767 66.6394 86.1501 68.3108C86.6953 69.9893 87.3391 71.6396 88.127 73.2159C88.521 74.0022 88.9607 74.771 89.4673 75.4868C89.9668 76.2097 90.5542 76.8761 91.2507 77.4262C90.5085 76.9396 89.8788 76.2872 89.3301 75.589C88.7848 74.8803 88.317 74.1221 87.8878 73.3393C87.4516 72.56 87.0964 71.7419 86.7516 70.9203C86.4104 70.0986 86.1009 69.2629 85.8194 68.4201C85.2707 66.7275 84.8028 65.0102 84.4194 63.2788C84.036 61.5439 83.7159 59.7949 83.5118 58.0317Z" fill="#290920"/>
<path d="M90.3121 53.9165C90.8116 55.856 91.2267 57.8201 91.6031 59.7877C91.983 61.7554 92.282 63.7407 92.5564 65.726C92.8062 67.7148 92.9961 69.7177 93.07 71.7242C93.077 72.2249 93.1052 72.7292 93.0946 73.2299L93.063 74.7356L92.9258 76.2378C92.8519 76.735 92.7499 77.2287 92.6584 77.7188C92.9785 75.7371 92.9187 73.7271 92.7991 71.7383C92.6725 69.7459 92.4861 67.7536 92.2082 65.7718C91.9654 63.7865 91.6594 61.8083 91.3393 59.8336C91.181 58.8462 91.0122 57.8589 90.8398 56.875C90.6709 55.8877 90.4915 54.9039 90.3121 53.9165Z" fill="#290920"/>
<path d="M100.102 63.1448C99.662 64.3966 99.1872 65.6378 98.7052 66.8791C98.2233 68.1203 97.7133 69.3475 97.2173 70.5852C96.6966 71.8123 96.1901 73.043 95.6554 74.2596L94.8463 76.0862C94.5649 76.6892 94.2941 77.2992 94.0056 77.8987C94.2237 77.2675 94.4594 76.6469 94.688 76.0227L95.4056 74.1608C95.8876 72.9231 96.3976 71.696 96.8901 70.4618C97.4107 69.2382 97.9173 68.011 98.452 66.7909C98.9867 65.5673 99.5249 64.3508 100.102 63.1448Z" fill="#290920"/>
<path d="M97.2801 44.6707C97.2801 44.6707 93.0413 29.1198 97.076 27.5083C101.107 25.9003 98.5148 44.8329 98.5148 44.8329L97.2801 44.6707Z" fill="#40C7A1"/>
<path d="M97.2798 44.6706C97.2798 44.6706 95.6757 31.0169 93.1219 30.4386C90.5716 29.8603 93.4912 42.5654 96.3722 44.9598L97.2798 44.6706Z" fill="#40C7A1"/>
<path d="M95.7991 45.122C95.7991 45.122 94.6875 37.202 90.6949 36.4192C86.7023 35.6364 95.0568 45.4535 95.0568 45.4535L95.7991 45.122Z" fill="#40C7A1"/>
<path d="M98.3107 44.6706C98.3107 44.6706 99.5876 31.306 102.55 31.5952C105.511 31.8844 99.3414 45.0832 99.3414 45.0832L98.3107 44.6706Z" fill="#40C7A1"/>
<path d="M99.4612 44.7518C99.4612 44.7518 102.135 36.1301 105.593 36.5427C109.05 36.9552 100.738 45.1644 100.738 45.1644L99.4612 44.7518Z" fill="#40C7A1"/>
<path d="M102.623 44.5472C101.396 44.1135 97.871 43.1579 93.4352 44.5543C93.1151 44.653 92.897 44.9492 92.897 45.2842C92.8899 46.938 92.999 51.8748 94.5151 54.1246C94.6523 54.3291 94.888 54.4455 95.1377 54.4455H101.016C101.339 54.4455 101.628 54.241 101.733 53.9342C102.194 52.6048 103.334 48.881 103.126 45.2313C103.112 44.921 102.915 44.6495 102.623 44.5472Z" fill="#004B80"/>
<path d="M94.6487 43.6303C93.8291 42.6077 93.0974 41.5287 92.3904 40.4355C91.6903 39.3353 91.0149 38.221 90.4275 37.0503C91.2471 38.0729 91.9788 39.152 92.6859 40.2451C93.3859 41.3453 94.0648 42.4596 94.6487 43.6303Z" fill="#290920"/>
<path d="M95.9994 42.925C95.6687 41.98 95.3803 41.0243 95.0918 40.0652C94.8034 39.1096 94.5396 38.1434 94.2757 37.1807C94.0189 36.2145 93.7657 35.2483 93.537 34.2751L93.1958 32.8152C93.0938 32.325 92.9812 31.8384 92.8898 31.3447C93.0586 31.8172 93.2028 32.2933 93.3611 32.7693L93.7973 34.2045C94.0858 35.1602 94.3496 36.1264 94.6134 37.089C94.8667 38.0552 95.1235 39.0214 95.3521 39.9947C95.5843 40.9679 95.8094 41.9447 95.9994 42.925Z" fill="#290920"/>
<path d="M97.4065 42.8688C97.3291 41.6699 97.2905 40.471 97.2588 39.2685C97.2201 38.0696 97.2131 36.8671 97.2025 35.6682C97.2025 34.4692 97.2025 33.2668 97.2271 32.0679L97.2694 30.2695C97.2975 29.67 97.3116 29.0705 97.3467 28.4675C97.389 29.067 97.4101 29.6665 97.4417 30.2659L97.498 32.0643C97.5332 33.2633 97.5437 34.4657 97.5543 35.6647C97.5543 36.8636 97.5543 38.066 97.5261 39.265C97.5015 40.4674 97.4734 41.6664 97.4065 42.8688Z" fill="#290920"/>
<path d="M99.4573 42.9251C99.6332 42.0329 99.8442 41.1514 100.059 40.2733C100.273 39.3918 100.513 38.5208 100.752 37.6463C101.002 36.7753 101.248 35.9043 101.522 35.0404L101.937 33.7462C102.089 33.3195 102.226 32.8858 102.388 32.4626C102.303 32.9105 102.198 33.3513 102.103 33.792L101.782 35.1144C101.568 35.996 101.329 36.867 101.089 37.7415C100.84 38.6125 100.593 39.4835 100.316 40.3439C100.048 41.2113 99.7703 42.0753 99.4573 42.9251Z" fill="#290920"/>
<path d="M101.1 43.1614C101.74 42.0683 102.468 41.0421 103.218 40.0301C103.974 39.0251 104.751 38.0342 105.617 37.1104C104.976 38.2035 104.248 39.2296 103.499 40.2417C102.739 41.2467 101.962 42.2376 101.1 43.1614Z" fill="#290920"/>
<path d="M93.5933 45.8062C95.0215 45.6687 96.4462 45.6369 97.8743 45.6299C99.3025 45.6334 100.727 45.6651 102.155 45.8062C100.727 45.9472 99.3025 45.979 97.8743 45.9825C96.4497 45.979 95.0215 45.9437 93.5933 45.8062Z" fill="#290920"/>
<path d="M95.1201 53.6238C96.0593 53.4863 96.995 53.4546 97.9343 53.4475C98.8735 53.451 99.8092 53.4828 100.748 53.6238C99.8092 53.7649 98.8735 53.7966 97.9343 53.8001C96.995 53.7931 96.0558 53.7613 95.1201 53.6238Z" fill="#290920"/>
<path d="M68.6565 7.52489C68.6565 7.52489 67.9354 6.51285 68.5018 4.14672C68.5158 4.09383 68.5791 4.07267 68.6178 4.11146C68.9696 4.45704 69.8842 5.55018 69.9651 6.46701C70.0566 7.52489 68.6565 7.52489 68.6565 7.52489Z" fill="#24B0AD"/>
<path d="M69.7963 5.81465C69.7963 5.81465 70.4752 4.95776 70.5597 4.00567C70.5702 3.89635 70.7144 3.86462 70.7707 3.9563C71.2104 4.68624 72.0969 6.49169 70.9642 7.69062L69.7963 5.81465Z" fill="#158A87"/>
<path d="M67.7209 9.86981C67.7209 9.86981 66.043 8.50161 66.5953 4.69677C66.6128 4.58392 66.743 4.5275 66.8345 4.59098C67.4782 5.03176 68.7797 6.17075 68.9556 7.8422C69.1702 9.8416 67.7209 9.86981 67.7209 9.86981Z" fill="#158A87"/>
<path d="M70.3802 9.32694C70.3802 9.32694 70.7742 7.32401 71.7239 5.87119C71.7873 5.77245 71.9385 5.79009 71.9737 5.90293C72.2199 6.70339 72.9094 9.05541 72.737 9.63019C72.5225 10.3249 70.3802 9.32694 70.3802 9.32694Z" fill="#24B0AD"/>
<path d="M68.3576 8.69225L65.6807 6.23444C65.5857 6.14628 65.4344 6.20622 65.4203 6.33317C65.343 7.07721 65.255 8.9673 66.2435 9.45039C67.4817 10.0534 68.2064 9.50682 68.3576 8.69225Z" fill="#24B0AD"/>
<path d="M71.4006 9.45722C71.4006 9.45722 72.4277 8.40992 73.476 7.88451C73.5815 7.83161 73.7082 7.89861 73.7187 8.01851C73.775 8.74844 73.8313 10.9841 72.5157 11.8903L70.5071 11.2345L71.4006 9.45722Z" fill="#4BCFCC"/>
<path d="M68.9274 11.4638C68.9274 11.4638 68.0445 10.413 68.3189 8.94608C68.5932 7.47915 69.4516 6.26259 69.7259 5.54323C69.9124 5.06013 72.0722 9.52439 71.7134 10.7692C71.3546 12.0139 70.4435 13.0083 70.4435 13.0083C70.4435 13.0083 69.3671 12.8744 68.9274 11.4638Z" fill="#4BCFCC"/>
<path d="M66.4335 11.9221C66.4335 11.9221 64.9244 11.0688 64.2982 8.87192C64.2736 8.78377 64.344 8.69561 64.4354 8.70619C65.0088 8.76613 66.7536 9.00945 67.6295 9.87691C68.6883 10.9242 66.4335 11.9221 66.4335 11.9221Z" fill="#4BCFCC"/>
<path d="M67.1792 11.6859C67.1792 11.6859 66.546 10.1555 68.1466 8.11381C68.2029 8.03976 68.3154 8.05034 68.3612 8.13144C68.6496 8.65686 69.4939 10.3354 69.2933 11.7177L67.1792 11.6859Z" fill="#158A87"/>
<path d="M69.4727 11.4745C69.4727 11.4745 69.8034 10.265 70.6793 9.32697C71.1049 8.87208 71.323 8.56529 71.4356 8.37135C71.4919 8.27614 71.6326 8.29024 71.6678 8.39603C71.9175 9.13302 72.4065 10.9737 71.4039 11.7178L69.4727 11.4745Z" fill="#158A87"/>
<path d="M66.9153 18.8903H71.6254C72.8777 18.0651 73.9471 16.5418 74.2602 14.694C74.7034 12.0705 73.2119 11.1431 73.2119 11.1431H65.3253C65.3253 11.1431 63.8373 12.0705 64.277 14.694C64.5901 16.5383 65.663 18.0616 66.9153 18.8903Z" fill="#42A3E8"/>
<path d="M65.2201 11.6016C66.6061 11.4641 67.9955 11.4323 69.3815 11.4253C70.7675 11.4288 72.1569 11.4606 73.5429 11.6016C72.1569 11.7427 70.7675 11.7744 69.3815 11.7779C67.9955 11.7744 66.6061 11.7391 65.2201 11.6016Z" fill="#290920"/>
<path d="M72.3438 10.5435C72.3966 10.152 72.5478 9.81704 72.7167 9.4891C72.8961 9.16821 73.1001 8.86142 73.3991 8.604C73.3464 8.99542 73.1986 9.33394 73.0262 9.65836C72.8433 9.97925 72.6393 10.286 72.3438 10.5435Z" fill="#290920"/>
<path d="M70.6408 10.7798C70.683 10.4378 70.8167 10.1522 70.975 9.88063C71.1403 9.61263 71.3303 9.36227 71.6082 9.16479C71.566 9.50684 71.4323 9.79247 71.274 10.064C71.1122 10.3285 70.9222 10.5824 70.6408 10.7798Z" fill="#290920"/>
<path d="M68.0025 10.7796C67.9075 10.4623 67.9216 10.159 67.9603 9.85927C68.0096 9.55954 68.0834 9.26686 68.2663 8.98828C68.3613 9.30917 68.3472 9.61243 68.3086 9.90864C68.2593 10.2048 68.1854 10.5011 68.0025 10.7796Z" fill="#290920"/>
<path d="M65.1883 9.42578C65.4979 9.5492 65.73 9.7502 65.9446 9.9653C66.1521 10.191 66.3386 10.4308 66.4476 10.7481C66.1381 10.6247 65.9024 10.4272 65.6913 10.2086C65.4873 9.98646 65.3009 9.74315 65.1883 9.42578Z" fill="#290920"/>
<path d="M65.8638 7.28174C66.1558 7.50037 66.3528 7.77189 66.5287 8.05752C66.694 8.3502 66.8382 8.65346 66.891 9.01314C66.599 8.79451 66.402 8.52299 66.2262 8.23736C66.0608 7.9482 65.9166 7.64142 65.8638 7.28174Z" fill="#290920"/>
<path d="M69.6454 9.42562C69.5399 8.94957 69.5434 8.4841 69.5715 8.01511C69.6102 7.54964 69.677 7.0877 69.8494 6.63281C69.9549 7.10886 69.9514 7.57433 69.9233 8.04332C69.8846 8.50879 69.8178 8.97073 69.6454 9.42562Z" fill="#290920"/>
<path d="M103.967 15.7094C103.967 15.7094 101.093 10.7127 103.644 8.21258C106.19 5.71246 108.575 8.70273 108.737 9.73241C108.899 10.7656 106.623 15.8188 106.623 15.8188L103.967 15.7094Z" fill="#158280"/>
<path d="M104.889 8.91783C104.889 8.91783 104.836 4.46415 102.56 3.59316C100.284 2.72218 98.6026 6.03687 99.6333 7.2887C100.664 8.537 104.403 9.18936 104.403 9.18936L104.889 8.91783Z" fill="#158280"/>
<path d="M101.364 3.86812C101.364 3.86812 100.875 0.553428 102.718 0.0668029C103.506 -0.141247 103.939 0.165538 104.174 0.588691C104.519 1.20579 104.393 1.97804 103.918 2.50346L102.282 4.30538L101.364 3.86812Z" fill="#158280"/>
<path d="M103.408 18.4952C103.397 18.5305 103.394 18.5622 103.394 18.601C103.394 18.7033 103.436 18.7914 103.496 18.8619H104.094C104.157 18.7914 104.196 18.6997 104.196 18.601C104.196 18.5693 104.192 18.5375 104.185 18.5093H106.243C106.236 18.541 106.232 18.5693 106.232 18.601C106.232 18.7033 106.275 18.7914 106.334 18.8619H106.932C106.996 18.7914 107.034 18.6997 107.034 18.601C107.034 18.5622 107.027 18.5269 107.017 18.4917C108.484 17.8182 108.079 16.1009 107.903 15.5402C107.868 15.4344 107.77 15.3604 107.657 15.3604H102.757C102.644 15.3604 102.546 15.4309 102.511 15.5402C102.331 16.1009 101.927 17.8252 103.408 18.4952Z" fill="#FF6168"/>
<path d="M105.585 7.28174C105.307 7.53563 105.047 7.8001 104.815 8.08925C104.576 8.37136 104.354 8.66756 104.168 8.9814C103.798 9.60908 103.51 10.2896 103.443 11.0055C103.366 11.7248 103.411 12.4689 103.517 13.1953C103.573 13.5585 103.651 13.9217 103.756 14.2779C103.851 14.6375 103.974 14.9902 104.122 15.3357C103.7 14.7116 103.433 13.9887 103.253 13.2482C103.081 12.5041 103.017 11.7389 103.095 10.9667C103.179 10.1874 103.499 9.45392 103.943 8.8333C104.389 8.21267 104.942 7.67315 105.585 7.28174Z" fill="#290920"/>
<path d="M107.021 7.75073C107.344 8.32199 107.545 8.9673 107.615 9.63376C107.657 9.96523 107.647 10.3038 107.611 10.6423C107.573 10.9773 107.506 11.2946 107.439 11.6191C107.151 12.8991 106.778 14.1509 106.289 15.3675C106.51 14.0769 106.824 12.8109 107.098 11.545C107.242 10.9067 107.372 10.2932 107.344 9.65492C107.319 9.01666 107.217 8.37488 107.021 7.75073Z" fill="#290920"/>
<path d="M106.229 7.39795C106.18 8.73793 106.025 10.0673 105.846 11.3897C105.656 12.712 105.438 14.0309 105.114 15.3321C105.163 13.9886 105.314 12.6627 105.497 11.3403C105.691 10.0215 105.905 8.70267 106.229 7.39795Z" fill="#290920"/>
<path d="M99.3977 5.98755C99.6862 6.24849 99.9711 6.50238 100.263 6.7457C100.555 6.98196 100.847 7.22174 101.164 7.41921C101.473 7.62021 101.8 7.79653 102.142 7.93405C102.49 8.061 102.849 8.13505 103.239 8.16679C102.866 8.28315 102.455 8.28668 102.061 8.19852C101.67 8.10684 101.304 7.927 100.97 7.71542C100.636 7.49679 100.34 7.23585 100.073 6.94669C99.8128 6.65401 99.5736 6.34018 99.3977 5.98755Z" fill="#290920"/>
<path d="M100.924 3.69535C101.382 3.64598 101.86 3.75177 102.282 3.95982C102.711 4.16435 103.081 4.48171 103.38 4.84844C103.675 5.22223 103.883 5.65243 104.034 6.09322C104.108 6.31537 104.15 6.54458 104.203 6.76674C104.224 6.99947 104.256 7.22515 104.263 7.45436C104.175 7.23926 104.111 7.02063 104.034 6.80905C103.943 6.601 103.869 6.39295 103.777 6.18843C103.668 5.99448 103.594 5.78291 103.468 5.60307C103.408 5.51138 103.362 5.41265 103.295 5.32449L103.098 5.06355C102.828 4.72502 102.507 4.42882 102.142 4.19608C101.783 3.9704 101.375 3.78704 100.924 3.69535Z" fill="#290920"/>
<path d="M100.221 4.52051C100.896 4.95777 101.498 5.4726 102.085 6.00859C102.662 6.55164 103.225 7.11232 103.711 7.7541C103.035 7.31684 102.434 6.80201 101.846 6.26601C101.269 5.72297 100.706 5.16229 100.221 4.52051Z" fill="#290920"/>
<path d="M101.804 3.1382C101.744 2.82436 101.755 2.49994 101.797 2.18258C101.843 1.86521 101.927 1.55138 102.068 1.25164C102.212 0.958962 102.402 0.676861 102.662 0.465284C102.922 0.253708 103.243 0.126762 103.563 0.109131C103.281 0.267813 103.049 0.447653 102.852 0.662756C102.666 0.884911 102.514 1.13528 102.388 1.40327C102.254 1.66774 102.159 1.95337 102.064 2.24253C101.973 2.53521 101.888 2.83141 101.804 3.1382Z" fill="#290920"/>
<path d="M102.476 3.43104C102.831 2.97262 103.148 2.52831 103.397 2.04521C103.527 1.80895 103.633 1.55859 103.728 1.30117C103.826 1.04375 103.886 0.775754 103.971 0.493652C104.034 0.775754 104.052 1.07901 103.995 1.37169C103.95 1.66437 103.848 1.95 103.71 2.21095C103.57 2.47189 103.397 2.7152 103.19 2.92325C102.982 3.1313 102.747 3.31467 102.476 3.43104Z" fill="#290920"/>
<path d="M32.6777 32.4662C31.6646 32.4803 30.6973 32.9316 30.0782 33.7321C25.857 39.1696 25.0057 50.637 26.7434 53.6132C28.7942 57.1183 26.6766 58.3772 27.169 61.5438C27.5701 64.118 31.1792 66.0715 32.5194 66.7133C32.836 66.8649 33.1984 66.8614 33.5149 66.7098C34.9009 66.0398 38.7282 63.9664 39.0553 61.364C39.4528 58.1833 37.3 56.9879 39.2453 53.4228C40.895 50.3973 39.699 38.9616 35.316 33.651C34.6687 32.8717 33.6873 32.4521 32.6777 32.4662Z" fill="#24B0AD"/>
<path d="M62.476 63.723C61.7092 63.0636 60.6855 62.7568 59.69 62.9437C52.9361 64.2132 44.7117 72.2319 44.0504 75.6136C43.2695 79.5983 40.8493 79.1364 39.1256 81.8375C37.7221 84.0308 39.1362 87.8921 39.7131 89.2638C39.8503 89.5882 40.1246 89.828 40.4588 89.9232C41.9398 90.3429 46.1751 91.3337 48.1414 89.6023C50.544 87.483 49.7209 85.1592 53.5341 83.7805C56.7703 82.6097 63.4363 73.251 63.665 66.3677C63.6966 65.3522 63.2429 64.3824 62.476 63.723Z" fill="#209E9B"/>
<path d="M1.95095 71.107C1.30721 71.6501 0.920267 72.4505 0.941373 73.2933C1.07505 79.0235 6.54504 86.8624 9.22552 87.8603C12.3844 89.0381 11.6809 90.9634 13.6648 92.7442C15.2759 94.19 18.6248 93.5447 19.8243 93.252C20.1092 93.1815 20.3414 92.991 20.4645 92.7266C21.0062 91.5629 22.3852 88.2094 21.2278 86.3617C19.8137 84.1013 17.8016 84.4681 17.1825 81.1463C16.6584 78.3288 9.88332 71.5901 4.27614 70.4793C3.44596 70.3171 2.59117 70.564 1.95095 71.107Z" fill="#209E9B"/>
<path d="M52.7711 83.9074C52.1696 83.4878 51.4133 83.3397 50.7097 83.5442C45.9327 84.9406 40.5753 91.3055 40.3396 93.7915C40.0582 96.7183 38.2853 96.5597 37.2335 98.626C36.3787 100.308 37.6697 102.988 38.1868 103.937C38.3099 104.159 38.5209 104.314 38.7707 104.36C39.8682 104.557 42.9919 104.966 44.2829 103.58C45.8623 101.884 45.106 100.266 47.7549 98.9998C50.0027 97.9278 54.143 90.706 53.8193 85.7269C53.7701 84.9935 53.3726 84.327 52.7711 83.9074Z" fill="#158280"/>
<path d="M17.0276 49.6039C16.2256 49.8613 15.5643 50.4537 15.2618 51.2401C13.211 56.5894 15.2864 65.9235 17.3864 67.8735C19.8594 70.1691 18.4769 71.6819 19.6342 74.0868C20.5735 76.0403 23.9153 76.7209 25.1359 76.9078C25.4244 76.9536 25.7128 76.862 25.9274 76.6645C26.8701 75.797 29.4169 73.2193 29.0511 71.0718C28.6043 68.4412 26.6028 68.011 27.2922 64.7034C27.8797 61.8965 24.1756 53.0808 19.4126 49.9107C18.7091 49.4452 17.8262 49.3465 17.0276 49.6039Z" fill="#209E9B"/>
<path d="M50.2276 50.8626C49.4783 50.4747 48.5919 50.4253 47.825 50.7674C42.6013 53.0947 37.483 61.1699 37.5956 64.0332C37.7258 67.4114 35.682 67.4995 34.8026 70.0173C34.0885 72.0625 35.9704 74.9153 36.7021 75.9132C36.8745 76.1495 37.1418 76.2905 37.4338 76.3011C38.7142 76.354 42.3304 76.3399 43.5897 74.5626C45.127 72.3869 44.0154 70.6626 46.8366 68.8148C49.2321 67.2456 52.8307 58.3876 51.698 52.7703C51.5292 51.9452 50.9734 51.2505 50.2276 50.8626Z" fill="#209E9B"/>
<path d="M31.7422 52.1144C30.9014 52.0968 30.0818 52.4388 29.5401 53.0841C25.8606 57.4708 24.7912 66.9777 26.1455 69.5025C27.7391 72.4786 25.9415 73.4589 26.2511 76.1107C26.5043 78.2617 29.4416 80.0002 30.5356 80.575C30.7924 80.7125 31.0949 80.7195 31.3623 80.6032C32.5372 80.0883 35.7805 78.4874 36.1358 76.3364C36.5684 73.7058 34.8131 72.6444 36.5438 69.7422C38.0107 67.2809 37.374 57.7353 33.902 53.1829C33.3849 52.5164 32.5829 52.1356 31.7422 52.1144Z" fill="#158280"/>
<path d="M16.437 94.8987C15.8988 95.2831 15.5435 95.8825 15.5048 96.5419C15.241 101.031 19.0119 107.512 21.0416 108.464C23.4372 109.589 22.7618 111.049 24.197 112.572C25.3613 113.807 28.0207 113.521 28.9775 113.369C29.2026 113.334 29.3996 113.197 29.5122 112.999C30.0117 112.125 31.3027 109.593 30.5183 108.073C29.5579 106.214 27.9609 106.37 27.69 103.732C27.4614 101.496 22.6 95.7873 18.2873 94.5566C17.6576 94.3803 16.9752 94.5179 16.437 94.8987Z" fill="#158280"/>
<path d="M38.8587 150.008H25.7447L17.7631 119.523H46.8438L38.8587 150.008Z" fill="#FFB41B"/>
<path d="M20.4577 122.033C22.3924 121.959 24.3272 121.928 26.2619 121.9C28.1966 121.871 30.1313 121.875 32.0661 121.857C34.0008 121.871 35.9355 121.871 37.8702 121.896L40.7723 121.945C41.7397 121.974 42.7071 121.991 43.6744 122.033C42.7071 122.072 41.7397 122.09 40.7723 122.122L37.8702 122.171C35.9355 122.199 34.0008 122.199 32.0661 122.21C30.1313 122.196 28.1966 122.199 26.2619 122.167C24.3272 122.139 22.3924 122.104 20.4577 122.033Z" fill="#290920"/>
<path d="M32.3369 119.551C33.2832 116.254 34.437 113.021 35.7033 109.833C36.9732 106.645 38.4049 103.524 39.9844 100.474C41.6025 97.4487 43.3684 94.4901 45.4579 91.7608C47.5509 89.0526 49.957 86.5067 52.9048 84.74C51.4696 85.6745 50.1681 86.7958 48.9791 88.0194C47.7866 89.2395 46.6785 90.5442 45.6725 91.923C44.6664 93.3018 43.7025 94.7123 42.8126 96.1722C41.9261 97.632 41.0854 99.1236 40.2904 100.636C38.6899 103.658 37.2652 106.772 35.9461 109.932C35.2847 111.508 34.6551 113.102 34.0535 114.706C33.452 116.311 32.8751 117.922 32.3369 119.551Z" fill="#290920"/>
<path d="M16.9399 95.8511C18.5123 97.6177 20.0109 99.4479 21.4742 101.303C22.9376 103.161 24.3411 105.065 25.7095 106.998C27.0498 108.948 28.3548 110.926 29.5121 112.996C30.0926 114.029 30.6308 115.087 31.1057 116.173C31.563 117.263 31.9816 118.387 32.1504 119.562C31.9042 118.405 31.4539 117.305 30.9474 116.244C30.4443 115.179 29.8815 114.142 29.2765 113.13C28.0769 111.099 26.7789 109.128 25.4211 107.199C24.0808 105.256 22.6773 103.359 21.2597 101.468C20.5526 100.523 19.835 99.5854 19.1139 98.6509C18.3998 97.7094 17.6681 96.782 16.9399 95.8511Z" fill="#290920"/>
<path d="M61.7025 64.3792L56.2677 70.3879L50.8048 76.372L45.3242 82.3385C44.4096 83.3329 43.488 84.3202 42.6191 85.3428C41.7573 86.376 40.9482 87.4515 40.1989 88.5658C37.1948 93.0266 35.1476 98.1362 34.2787 103.454C34.0571 104.78 33.9128 106.127 33.7475 107.467L33.2586 111.494L32.2419 119.541C32.8153 114.163 33.3254 108.785 34.0113 103.411C34.831 98.0445 36.8994 92.882 39.907 88.3684C40.6668 87.2435 41.4899 86.1645 42.3623 85.1242C43.2453 84.091 44.1739 83.1107 45.092 82.1198L50.6078 76.1851L56.1411 70.268L61.7025 64.3792Z" fill="#290920"/>
<path d="M32.0941 119.565C31.4011 117.291 30.6026 115.052 29.7583 112.83C28.9176 110.608 28.0241 108.405 27.0743 106.232C25.1818 101.877 23.0712 97.6177 20.7038 93.506C19.5219 91.4502 18.2696 89.4332 16.9505 87.462C15.6243 85.4943 14.2067 83.5937 12.7363 81.7318C11.2448 79.8876 9.66181 78.1209 7.99795 76.4318C6.31649 74.7604 4.54006 73.1841 2.66162 71.7278C4.57172 73.1348 6.39037 74.6722 8.11755 76.3084C9.81307 77.9763 11.4242 79.7324 12.9438 81.5626C14.4529 83.4033 15.8705 85.318 17.2143 87.2822C18.544 89.2569 19.8103 91.2739 21.0063 93.3297C23.3562 97.4696 25.4773 101.74 27.3206 106.127C28.2422 108.32 29.1111 110.534 29.9166 112.774C30.7116 115.013 31.4574 117.273 32.0941 119.565Z" fill="#290920"/>
<path d="M31.5065 53.7402L31.6929 61.9635L31.8371 70.1832L32.0763 86.6298L32.2311 103.073L32.2804 111.296L32.2909 119.519L32.108 111.3L31.9602 103.076L31.7246 86.6333L31.5698 70.1868L31.5205 61.9635L31.5065 53.7402Z" fill="#290920"/>
<path d="M49.7987 51.6245C48.6308 53.3771 47.5192 55.1649 46.4498 56.9739C45.3734 58.7793 44.3357 60.613 43.3367 62.4643C41.3457 66.1704 39.4919 69.9505 37.8808 73.8365C36.245 77.7083 34.852 81.6895 33.8003 85.7588C32.7555 89.8281 32.0907 94.0103 32.0625 98.2277C32.0027 96.119 32.1329 94.0103 32.3791 91.9157C32.6359 89.8211 33.058 87.7476 33.5399 85.6953C34.5425 81.5908 35.9425 77.599 37.5571 73.7025C39.1999 69.8165 41.0537 66.0223 43.101 62.3373C45.1553 58.6559 47.3539 55.0556 49.7987 51.6245Z" fill="#290920"/>
<path d="M16.9399 50.4504C18.449 54.4316 19.8913 58.441 21.3089 62.4574C22.7265 66.4738 24.0914 70.5079 25.4351 74.549C26.7508 78.6007 28.0523 82.6594 29.2378 86.7499C29.8287 88.7951 30.3986 90.8509 30.9122 92.9173C31.1655 93.9541 31.4011 94.9908 31.6157 96.0381C31.8127 97.0854 32.0132 98.1362 32.0625 99.2011C31.8408 97.0819 31.2921 95.0155 30.7468 92.9632C30.1981 90.9074 29.6001 88.8657 28.9775 86.8275C27.7392 82.7546 26.4412 78.6994 25.101 74.6583C23.7854 70.6101 22.4135 66.5761 21.0521 62.542L16.9399 50.4504Z" fill="#290920"/>
<path d="M32.4177 33.3479C32.5478 34.91 32.6428 36.4722 32.7273 38.0378C32.8152 39.6 32.8715 41.1656 32.9453 42.7313C32.9911 44.297 33.0509 45.8626 33.0825 47.4283L33.1212 49.7768C33.1212 50.5596 33.1353 51.3425 33.1247 52.1288C33.0544 51.3495 33.0087 50.5667 32.9524 49.7839L32.8152 47.4389C32.7273 45.8767 32.671 44.3111 32.6006 42.7454C32.5584 41.1798 32.4951 39.6141 32.4669 38.0484C32.4282 36.4792 32.4036 34.9136 32.4177 33.3479Z" fill="#290920"/>
<path d="M17.1439 100.7C18.0761 100.943 18.9696 101.289 19.849 101.655C20.7249 102.033 21.5938 102.435 22.4204 102.935C21.4883 102.692 20.5948 102.35 19.7153 101.98C18.8359 101.599 17.9706 101.2 17.1439 100.7Z" fill="#290920"/>
<path d="M3.3089 77.5425C4.1039 77.7893 4.88482 78.0714 5.66223 78.357C6.44315 78.6391 7.21001 78.9495 7.98038 79.2598C8.74724 79.5771 9.51057 79.8945 10.2669 80.2365L11.3996 80.7514C11.7724 80.9347 12.1488 81.1075 12.5182 81.3015C12.1207 81.1816 11.7302 81.0405 11.3363 80.9101L10.1684 80.4869C9.39097 80.2013 8.6206 79.8945 7.85023 79.5842C7.08337 79.2668 6.32004 78.9495 5.56373 78.6074C4.8004 78.2689 4.04761 77.9233 3.3089 77.5425Z" fill="#290920"/>
<path d="M15.5608 56.0923C16.1307 56.7023 16.6724 57.3406 17.2071 57.9788C17.7453 58.6136 18.2624 59.2695 18.7795 59.9218C19.2895 60.5812 19.7996 61.2406 20.285 61.9142L21.0167 62.9297C21.2489 63.2753 21.4916 63.6138 21.7167 63.9665C21.4283 63.6632 21.1574 63.3458 20.8795 63.0355L20.0705 62.0799C19.5323 61.4416 19.0152 60.7893 18.4981 60.1369C17.988 59.4775 17.4779 58.8181 16.9925 58.141C16.5035 57.4711 16.0181 56.794 15.5608 56.0923Z" fill="#290920"/>
<path d="M35.0244 61.0291C34.8309 61.9882 34.5987 62.9403 34.363 63.8853C34.1309 64.8339 33.8706 65.7754 33.6103 66.7169C33.3429 67.6549 33.0756 68.5964 32.7801 69.5274L32.3369 70.9238C32.1786 71.3857 32.0273 71.8512 31.8585 72.3096C31.9534 71.83 32.066 71.354 32.1715 70.8744L32.5198 69.4498C32.7519 68.5012 33.0123 67.5597 33.2726 66.6182C33.5399 65.6802 33.8073 64.7387 34.1027 63.8078C34.3947 62.8803 34.6937 61.9494 35.0244 61.0291Z" fill="#290920"/>
<path d="M43.5265 54.7983C43.4913 55.5953 43.4174 56.3887 43.3365 57.1821C43.2626 57.9755 43.1571 58.7654 43.0551 59.5518C42.9425 60.3381 42.83 61.128 42.6928 61.9108L42.4817 63.0886C42.3973 63.48 42.3269 63.8714 42.2355 64.2593C42.2495 63.8609 42.2847 63.4624 42.3129 63.0639L42.4254 61.8756C42.5028 61.0822 42.6048 60.2923 42.7068 59.5059C42.8194 58.7196 42.932 57.9297 43.0692 57.1468C43.2063 56.3605 43.3471 55.5776 43.5265 54.7983Z" fill="#290920"/>
<path d="M52.9644 67.2566C52.8729 68.0183 52.7111 68.7658 52.5563 69.5134C52.4015 70.261 52.2186 71.0015 52.0357 71.742C51.8457 72.479 51.6523 73.2195 51.4342 73.9495L51.1035 75.0461C50.9804 75.4093 50.8713 75.7725 50.7377 76.1322C50.794 75.7514 50.8713 75.3776 50.9382 75.0038L51.1739 73.8824C51.3322 73.1349 51.5151 72.3944 51.698 71.6574C51.888 70.9204 52.0814 70.1799 52.296 69.4499L52.6196 68.3533L52.9644 67.2566Z" fill="#290920"/>
<path d="M50.0342 92.353C49.4151 92.8009 48.7784 93.2205 48.1382 93.6295C47.5015 94.0456 46.8472 94.4335 46.1964 94.8249C45.5386 95.2093 44.8843 95.5901 44.2124 95.9498L43.2064 96.4893C42.8652 96.6586 42.5275 96.8349 42.1792 96.9936C42.4852 96.7644 42.8053 96.5563 43.1184 96.3377L44.0752 95.7136C44.7155 95.2975 45.3662 94.9096 46.017 94.5181C46.6748 94.1338 47.3326 93.7529 48.001 93.3933C48.6728 93.0371 49.3447 92.6774 50.0342 92.353Z" fill="#290920"/>
<path d="M105.259 137.352C107.999 140.409 109.709 142.313 109.709 142.313L112.421 140.409C111.264 138.293 110.124 136.23 109.009 134.245C107.781 135.299 106.525 136.333 105.259 137.352Z" fill="#FA9778"/>
<path d="M109.66 142.109L106.958 146.287L107.282 146.834L113.188 143.103C113.638 142.818 113.761 142.2 113.448 141.767L112.435 140.356L109.66 142.109Z" fill="#FF6168"/>
<path d="M73.9128 135.567C74.4933 140.381 74.8697 143.459 74.8697 143.459H78.1833C78.4788 140.797 78.725 138.29 78.9326 135.938C77.2582 135.821 75.5837 135.698 73.9128 135.567Z" fill="#FA9778"/>
<path d="M74.9259 143.459L70.4162 145.55L70.3986 146.185H77.3812C77.9159 146.185 78.3451 145.727 78.3134 145.194L78.2044 143.459H74.9259Z" fill="#FF6168"/>
<path d="M72.4038 64.3402C72.4038 64.3402 67.0639 73.2758 67.2715 79.8487C67.479 86.4217 74.2435 141.393 74.2435 141.393H79.0311L80.8005 88.4035L87.0022 116.473C87.3047 117.834 87.9484 119.096 88.8806 120.133L107.961 141.396L112.227 138.579L96.7215 112.294C96.7215 112.294 94.0516 74.0903 84.2689 64.3472C84.0403 64.1145 72.4038 64.3402 72.4038 64.3402Z" fill="#42A3E8"/>
<path d="M85.6232 71.0791L89.3941 88.8233C90.6746 94.7333 91.9444 100.647 93.3797 106.518C93.7385 107.985 94.1043 109.452 94.5088 110.905C94.7129 111.631 94.9204 112.358 95.1737 113.059C95.3003 113.412 95.434 113.758 95.6275 114.036C95.8526 114.346 96.0883 114.657 96.2853 114.978C97.9386 117.52 99.4793 120.119 101.017 122.721C102.55 125.327 104.07 127.937 105.583 130.557L110.071 138.434L105.435 130.641L100.784 122.859C99.212 120.281 97.6747 117.672 96.0214 115.158C95.8174 114.837 95.5958 114.544 95.3777 114.244C95.135 113.899 95.0013 113.532 94.8676 113.176C94.6073 112.456 94.3963 111.73 94.1887 111C93.7772 109.54 93.4043 108.073 93.042 106.606C91.6349 100.721 90.358 94.8074 89.1338 88.8833L87.3363 79.99L85.6232 71.0791Z" fill="#290920"/>
<path d="M80.7971 88.3895L76.7693 80.1274L80.5895 94.5499L80.7971 88.3895Z" fill="#290920"/>
<path d="M66.4978 67.3661C65.1611 66.5021 63.5711 65.8744 62.1253 65.074C56.5744 77.6945 50.1968 87.5927 50.1968 87.5927L52.2406 89.1725C59.0966 83.3436 64.1691 75.2508 67.6551 68.1277C67.2717 67.8738 66.8882 67.6199 66.4978 67.3661Z" fill="#FA9778"/>
<path d="M52.2897 89.0491C52.2897 89.0491 50.7736 92.5013 49.764 93.1396C49.5389 93.2806 49.6444 92.7623 49.9153 92.1099C49.9153 92.1099 48.765 93.5204 48.5575 93.6156C48.3499 93.7108 49.5776 91.3236 49.5776 91.3236C49.5776 91.3236 47.8856 93.6121 47.6323 93.5627C47.379 93.5098 48.7931 91.1755 48.7931 91.1755C48.7931 91.1755 47.4213 93.0056 47.1785 92.9386C46.9358 92.8716 48.6384 90.1423 48.6384 90.1423C48.6384 90.1423 47.3474 90.3115 47.4037 89.9518C47.4599 89.5922 48.6208 88.9222 49.0992 88.7388C49.5776 88.5554 50.6575 86.9333 50.6575 86.9333L52.2897 89.0491Z" fill="#FA9778"/>
<path d="M71.8832 44.4521C71.8832 44.4521 69.3082 46.5926 68.4464 48.3028C67.5846 50.0131 60.4366 67.9548 60.4366 67.9548L66.6102 71.4317L74.5883 54.3927L71.8832 44.4521Z" fill="#FF6168"/>
<path d="M71.4925 60.9692L70.2015 53.9766L70.993 62.027L71.4925 60.9692Z" fill="#290920"/>
<path d="M73.2878 44.8868L77.6821 44.207L76.783 38.3661L72.3887 39.0459L73.2878 44.8868Z" fill="#FA9778"/>
<path d="M72.5619 40.157L72.8468 42.0119C72.8468 42.0119 75.5273 41.3066 76.3293 39.7974L72.5619 40.157Z" fill="#290920"/>
<path d="M75.1617 50.6795C76.6778 50.549 77.7965 48.7894 78.4437 47.5834C78.901 46.7301 79.1754 45.8097 79.404 44.8717C79.4638 44.6284 79.5377 44.3851 79.6151 44.1383C78.6301 43.9796 77.9266 43.5141 77.4975 43.0627L73.1074 43.7433C72.8541 44.2652 72.5832 45.1503 71.9395 45.7815C72.2491 47.8832 73.0019 50.8699 75.1617 50.6795Z" fill="#FA9778"/>
<path d="M72.4036 64.3405H84.2653C83.8502 61.9426 85.514 50.8137 85.1306 47.9645C84.7507 45.1118 82.7386 43.6519 80.934 43.8952C79.1294 44.1385 77.4937 43.063 77.4937 43.063L73.8248 48.5217L73.0614 43.7753C72.4494 43.7965 71.9112 44.1808 71.6895 44.7556C71.2604 45.8699 70.5041 47.7036 69.7654 48.765C68.7699 50.2002 68.8648 54.5727 70.0784 57.0764C71.2956 59.5765 72.4036 64.3405 72.4036 64.3405Z" fill="#FF6168"/>
<path d="M72.3721 44.572L72.6958 46.2611C72.7978 46.8253 72.9068 47.386 73.0299 47.9431C73.1566 48.4968 73.2727 49.061 73.4485 49.5899C73.4943 49.7169 73.5435 49.8509 73.5998 49.9531C73.6174 50.0025 73.6948 50.0342 73.5963 50.0025C73.5822 50.006 73.6455 49.9778 73.6842 49.939C73.8742 49.7768 74.0501 49.5441 74.2189 49.3219C74.8943 48.4157 75.4923 47.4354 76.1114 46.4762L77.9442 43.5706C77.4517 44.6073 76.9064 45.6158 76.3436 46.6173C75.7773 47.6152 75.1863 48.599 74.5003 49.537C74.3209 49.7697 74.1486 49.999 73.9023 50.207C73.832 50.2564 73.7757 50.3198 73.6174 50.341C73.5681 50.341 73.5189 50.3375 73.4697 50.3057C73.4204 50.274 73.4204 50.2634 73.3923 50.2387C73.3465 50.1929 73.336 50.1612 73.3078 50.1224C73.2234 49.9743 73.1777 49.8332 73.1319 49.6922C72.9631 49.1244 72.8541 48.5638 72.7661 47.9925C72.5797 46.857 72.4495 45.7181 72.3721 44.572Z" fill="#290920"/>
<path d="M70.0465 85.9035L59.7362 92.4588C59.2015 92.8009 58.4909 92.6316 58.1602 92.0886C56.2677 88.9749 53.5837 82.3279 52.6445 79.9441C52.444 79.4363 52.634 78.8616 53.0913 78.5689L57.7627 75.5997L60.3553 73.9495C60.8126 73.6568 61.4106 73.7308 61.7834 74.1258C63.5036 75.9524 68.2208 81.0549 70.3771 84.3096C70.7324 84.8456 70.5847 85.5615 70.0465 85.9035Z" fill="#FFB41B"/>
<path d="M59.9543 87.5892L59.0116 91.8172L45.2609 87.4164L45.6444 85.6956L59.9543 87.5892Z" fill="#FFB41B"/>
<path d="M45.9363 85.8541L45.6127 87.2963L42.8267 88.4812L43.9171 83.5938L45.9363 85.8541Z" fill="#FFB41B"/>
<path d="M60.7668 75.1094C60.9181 74.6687 61.0975 74.2949 61.3051 73.9035C61.5091 73.5191 61.7518 73.1488 62.0262 72.7927C62.5785 72.1015 63.2925 71.428 64.2669 71.1177C64.7453 70.9625 65.2765 70.9273 65.7725 71.0013C66.0187 71.0401 66.2615 71.1036 66.4901 71.1882C66.7188 71.2799 66.9263 71.3681 67.1514 71.5126C67.5912 71.7806 67.9535 72.1756 68.1997 72.5952C68.453 73.0184 68.5972 73.4627 68.7027 73.8999C69.0897 75.656 68.9033 77.3169 68.8012 78.9496C68.745 79.7641 68.6922 80.5752 68.6957 81.3721C68.6992 81.7706 68.7274 82.1655 68.8048 82.5428C68.8857 82.9166 69.0123 83.2763 69.2621 83.5372L69.0299 83.8017C68.6676 83.5055 68.46 83.0823 68.3299 82.6698C68.1997 82.2537 68.1258 81.8305 68.0801 81.4109C67.9851 80.5716 67.9851 79.743 67.9781 78.9213C67.9746 78.0997 67.9711 77.2852 67.9253 76.4847C67.8866 75.6878 67.8163 74.8943 67.6052 74.182C67.4082 73.4662 67.0424 72.8703 66.5112 72.5917C66.3916 72.5176 66.2157 72.4542 66.061 72.4013C65.9027 72.3519 65.7444 72.3131 65.5896 72.292C65.2765 72.2532 64.9705 72.2884 64.675 72.3836C64.0735 72.5705 63.5177 73.0466 63.0358 73.6037C62.5609 74.1644 62.1282 74.8414 61.7975 75.5009L60.7668 75.1094Z" fill="#FFB41B"/>
<path d="M85.5949 63.6738C78.0389 68.5366 71.9005 71.6961 70.8733 72.218C70.8733 72.2215 70.8663 72.2215 70.8663 72.2215C70.8663 72.2215 70.8663 72.2215 70.8628 72.2215C70.3105 72.4578 69.5226 72.7575 69.2024 72.7117C68.5482 72.6165 66.7717 72.3943 66.7717 72.8527C66.7717 73.4099 67.5632 73.9846 67.5632 73.9846C67.5632 73.9846 66.9758 74.3972 67.3275 74.8662C67.3275 74.8662 67.1798 75.247 67.5034 75.5115C67.5034 75.5115 67.4929 75.5256 67.4788 75.5538C67.2079 76.0228 67.6195 76.6011 68.1542 76.5059C68.2984 76.4812 68.4743 76.446 68.6642 76.4001C68.6642 76.4319 68.6642 76.4601 68.6642 76.4918C68.7944 76.4319 68.9316 76.3649 69.0688 76.2944C69.9482 76.0369 71.0422 75.5609 71.6683 74.6934V74.7005C77.8524 73.6532 83.8501 71.213 89.1583 68.3602C89.299 68.2862 89.4362 68.2051 89.5769 68.131C88.2683 66.6288 86.9421 65.1443 85.5949 63.6738Z" fill="#FA9778"/>
<path d="M78.9394 48.2427L84.1033 45.2595C84.1033 45.2595 91.7332 55.2565 94.0373 62.9614C94.0373 62.9614 95.6589 66.537 87.1989 69.8412L83.9626 64.245L86.4954 62.7675L78.9394 48.2427Z" fill="#FF6168"/>
<path d="M86.4955 62.7675L81.2576 52.5801L84.0507 64.2979L86.4955 62.7675Z" fill="#290920"/>
<path d="M53.5526 79.3057C54.1541 78.8579 54.7767 78.4418 55.4029 78.0292C56.0255 77.6131 56.6622 77.2252 57.3024 76.8338C57.9461 76.4494 58.5864 76.0686 59.2442 75.7089L60.2291 75.1694C60.5633 75.0001 60.894 74.8238 61.2352 74.6616C60.9362 74.8908 60.6231 75.0989 60.3206 75.3175L59.3849 75.9417C58.7622 76.3542 58.122 76.7456 57.4853 77.1371C56.8416 77.5214 56.2014 77.9023 55.5436 78.2619C54.8893 78.6251 54.2315 78.9813 53.5526 79.3057Z" fill="#290920"/>
<path d="M59.1208 91.4114C59.9616 90.7837 60.8234 90.1842 61.6852 89.5918C62.5471 88.9959 63.423 88.4246 64.3024 87.8534C65.1853 87.2892 66.0648 86.725 66.9618 86.1819L68.309 85.3709C68.7628 85.1099 69.2131 84.8419 69.6739 84.5916C69.2553 84.9089 68.8261 85.2087 68.4005 85.5154L67.1095 86.4076C66.2477 87.0035 65.3718 87.5748 64.4924 88.146C63.6094 88.7102 62.73 89.2744 61.833 89.8175C60.9395 90.3676 60.0425 90.9071 59.1208 91.4114Z" fill="#290920"/>
<path d="M45.4619 87.0636C45.3669 86.8485 45.374 86.6581 45.4056 86.4677C45.4514 86.2843 45.5182 86.1045 45.6941 85.9458C45.7926 86.1609 45.782 86.3548 45.7504 86.5417C45.7081 86.7286 45.6378 86.9049 45.4619 87.0636Z" fill="#290920"/>
<path d="M77.7996 33.4925C77.775 33.4925 77.7504 33.4925 77.7293 33.4925L77.5886 32.5756C77.2509 30.3717 75.193 28.8625 72.998 29.201C71.897 29.3703 70.9718 29.9733 70.3632 30.8055C69.7512 31.6377 69.4627 32.7061 69.6316 33.8063L70.1311 37.047C70.2085 37.5512 70.3773 38.0202 70.6165 38.4398C71.4221 39.8468 73.0296 40.6825 74.7252 40.4216C76.7091 40.1148 78.1268 38.401 78.1303 36.4475C78.6087 36.1231 78.9745 35.3402 78.9992 34.8113C79.0308 34.1131 78.4926 33.5242 77.7996 33.4925Z" fill="#FA9778"/>
<path d="M78.2362 34.2857C77.99 34.4091 77.7614 34.529 77.582 34.6948C77.487 34.7759 77.4201 34.8746 77.3568 34.9804C77.29 35.0862 77.2654 35.2131 77.2232 35.3471C77.188 35.2131 77.1774 35.065 77.2232 34.924C77.2618 34.7829 77.3463 34.6525 77.4553 34.5537C77.5644 34.4585 77.691 34.3809 77.8247 34.3386C77.9548 34.2963 78.0955 34.2716 78.2362 34.2857Z" fill="#290920"/>
<path d="M77.9302 35.7034C77.888 35.4883 77.8599 35.2979 77.7895 35.1286C77.7579 35.044 77.7086 34.9699 77.6523 34.8959C77.5961 34.8183 77.5151 34.7654 77.4307 34.6949C77.5398 34.6913 77.6523 34.7196 77.7473 34.7866C77.8458 34.85 77.9197 34.9488 77.9619 35.0546C78.0041 35.1639 78.0217 35.2767 78.0146 35.386C78.0076 35.4989 77.9865 35.6082 77.9302 35.7034Z" fill="#290920"/>
<path d="M74.1803 36.8811C74.0255 37.2126 73.7124 37.4841 73.329 37.5723C73.1355 37.6146 72.928 37.5969 72.7521 37.5194C72.5692 37.4524 72.4285 37.3148 72.3159 37.1738C72.4883 37.2443 72.6431 37.3148 72.8049 37.3466C72.9632 37.3783 73.125 37.3854 73.2798 37.3466C73.5928 37.2725 73.8813 37.0892 74.1803 36.8811Z" fill="#290920"/>
<path d="M72.615 34.4619C72.6853 34.6559 72.7311 34.8533 72.7768 35.0508C72.8014 35.1495 72.812 35.2589 72.8085 35.3717C72.8049 35.4845 72.7662 35.5974 72.7205 35.6926C72.6326 35.8795 72.4954 36.0523 72.5165 36.1968C72.5446 36.3485 72.7416 36.4719 72.9245 36.5354C72.7275 36.5424 72.4813 36.4825 72.3758 36.2356C72.3301 36.1087 72.3793 35.9817 72.4145 35.8865C72.4567 35.7878 72.5095 35.6996 72.5481 35.615C72.6396 35.4457 72.6431 35.2765 72.6291 35.072C72.6185 34.871 72.6044 34.6664 72.615 34.4619Z" fill="#290920"/>
<path d="M75.313 33.7675C75.1863 33.704 75.0316 33.6582 74.8873 33.63C74.7396 33.6053 74.5919 33.5912 74.4476 33.6017C74.3034 33.6194 74.1592 33.6405 74.0185 33.6864C73.8778 33.7252 73.7406 33.7816 73.5928 33.8309L73.5823 33.8345C73.4767 33.8697 73.3642 33.8133 73.329 33.7075C73.3009 33.6229 73.3325 33.5347 73.3994 33.4854C73.6878 33.2703 74.0712 33.1539 74.4441 33.1751C74.6306 33.1786 74.817 33.2209 74.9893 33.2879C75.1652 33.3549 75.3165 33.4501 75.4607 33.5806C75.51 33.6229 75.5135 33.7005 75.4678 33.7463C75.4326 33.7851 75.3728 33.7957 75.327 33.771L75.313 33.7675Z" fill="#290920"/>
<path d="M73.9128 35.08C73.9515 35.3269 74.1802 35.4961 74.4299 35.4574C74.6761 35.4186 74.845 35.1894 74.8063 34.939C74.7676 34.6922 74.539 34.5229 74.2892 34.5617C74.043 34.6005 73.8741 34.8332 73.9128 35.08Z" fill="#290920"/>
<path d="M74.9965 34.6209C74.9578 34.6844 74.9156 34.7337 74.8558 34.7831C74.7995 34.829 74.7221 34.8713 74.6307 34.8818L74.6025 34.8854C74.5357 34.8924 74.4759 34.8431 74.4689 34.7761C74.4618 34.7091 74.5111 34.6491 74.5779 34.6421C74.5955 34.6385 74.6166 34.6421 74.6342 34.6491C74.701 34.6738 74.8206 34.6209 74.9015 34.5504L74.9051 34.5469C74.9297 34.5257 74.9684 34.5292 74.9895 34.5539C75.0071 34.5715 75.0106 34.5997 74.9965 34.6209Z" fill="#290920"/>
<path d="M70.1033 34.4126C70.2018 34.2433 70.3178 34.1058 70.4656 33.9894C70.6098 33.873 70.7716 33.7778 70.951 33.7179C71.3028 33.5874 71.7003 33.5768 72.0415 33.6967C72.147 33.732 72.1998 33.8484 72.1646 33.9506C72.1365 34.0352 72.0556 34.0846 71.9747 34.0846H71.9641C71.8093 34.0811 71.6616 34.0705 71.5139 34.074C71.3661 34.074 71.2219 34.0952 71.0812 34.1234C70.9405 34.1551 70.8033 34.2151 70.6696 34.2821C70.543 34.3526 70.4058 34.4443 70.3073 34.543L70.2862 34.5536C70.2405 34.5994 70.1666 34.5994 70.1208 34.5536C70.0822 34.5148 70.0786 34.4549 70.1033 34.4126Z" fill="#290920"/>
<path d="M72.0275 35.3684C72.0662 35.6153 71.8973 35.848 71.6511 35.8868C71.4049 35.9256 71.1727 35.7563 71.134 35.5095C71.0953 35.2627 71.2642 35.0299 71.5104 34.9911C71.7601 34.9523 71.9888 35.1216 72.0275 35.3684Z" fill="#290920"/>
<path d="M70.9265 35.1639C71.0285 35.2062 71.1586 35.2203 71.2114 35.178C71.2642 35.1356 71.3415 35.1462 71.3838 35.1991C71.426 35.252 71.4154 35.3296 71.3626 35.3719C71.3486 35.3825 71.331 35.3931 71.3134 35.3966L71.2853 35.4037C71.1938 35.4248 71.1094 35.4072 71.039 35.379C70.9687 35.3508 70.9124 35.312 70.8561 35.2661C70.8315 35.245 70.828 35.2062 70.8491 35.1815C70.8667 35.1603 70.8948 35.1533 70.9194 35.1639H70.9265Z" fill="#290920"/>
<path d="M71.9289 37.2655C72.0169 37.8403 71.6229 38.3763 71.0531 38.4645C70.9018 38.4892 70.754 38.4786 70.6169 38.4398C70.3741 38.0202 70.2088 37.5547 70.1314 37.0469L70.0857 36.7578C70.244 36.5638 70.4691 36.4298 70.7329 36.3875C71.3028 36.2958 71.8375 36.6908 71.9289 37.2655Z" fill="#FA7C55"/>
<path d="M74.2541 36.9022C74.342 37.477 74.8767 37.8684 75.4501 37.7803C76.0235 37.6921 76.4139 37.1561 76.326 36.5814C76.2381 36.0066 75.7034 35.6152 75.13 35.7033C74.5601 35.7915 74.1662 36.331 74.2541 36.9022Z" fill="#FA7C55"/>
<path d="M75.0489 32.1771C75.0489 32.1771 75.7524 34.6032 76.3504 35.0722L77.2967 33.9896C77.6801 33.5488 78.3836 33.5171 78.76 33.9614C78.8022 34.0143 78.8444 34.0707 78.8761 34.1342C79.161 34.7089 79.0801 35.6293 78.1339 36.4474L76.9132 38.6725C76.7198 39.0286 76.6318 39.4342 76.6635 39.8397L76.9027 42.897C76.9027 42.897 79.2666 43.3201 80.7616 42.5232C81.1169 42.3327 81.3174 41.9413 81.2892 41.5358C81.1345 39.3989 80.4274 31.9972 78.0741 30.1706C78.0741 30.1706 74.5107 26.729 70.8171 29.5183C67.1235 32.3076 69.206 40.9928 69.3326 41.8779C69.3854 42.234 69.4522 42.6113 69.5155 42.9393C69.614 43.44 70.0608 43.7891 70.5673 43.7679L73.079 43.6516L72.5689 40.157C72.5689 40.157 71.0246 39.5576 70.2965 37.8368L69.6985 34.1588C69.6914 34.1588 72.4458 34.5503 75.0489 32.1771Z" fill="#290920"/>
<path d="M83.013 32.4698L78.7601 29.8745H78.7495C78.6159 27.8962 76.9766 26.3306 74.9716 26.3306H73.6208C71.6122 26.3306 69.9729 27.8927 69.8392 29.8709H69.8252L65.0341 32.4839C64.7949 32.6144 64.8582 32.9776 65.1291 33.0164C70.4759 33.7498 79.9596 33.1962 82.8863 32.9987C83.1607 32.9741 83.2487 32.6144 83.013 32.4698Z" fill="#FFB41B"/>
<path d="M70.3209 29.8216C71.6119 29.6841 72.8993 29.6523 74.1903 29.6453C75.4813 29.6488 76.7688 29.6805 78.0598 29.8216C76.7688 29.9626 75.4813 29.9944 74.1903 29.9979C72.8993 29.9908 71.6083 29.9591 70.3209 29.8216Z" fill="#290920"/>
</svg>
